<?xml version="1.0"?>
<svg width="344.869" height="106" xmlns="http://www.w3.org/2000/svg" xmlns:svg="http://www.w3.org/2000/svg" enable-background="new 0 0 344.869 106" version="1.1" xml:space="preserve">
 <g class="layer">
  <title>Layer 1</title>
  <g id="svg_1">
   <text fill="#000000" font-family="Serif" font-size="24" id="svg_9" stroke-width="0" text-anchor="middle" transform="matrix(1.51264 -0.0000480648 0.0000541988 3.60422 46.0076 -52.3304)" x="117.63" xml:space="preserve" y="37.2">PrimosCientific</text>
  </g>
  <polygon id="svg_7" points="93.78399658203125,21.167999267578125 63.01499938964844,75.46099853515625 63.01499938964844,59.525001525878906 80.85600280761719,28.036998748779297 62.92500305175781,38.23500061035156 62.920997619628906,38.23500061035156 58.98500061035156,40.47200012207031 58.98500061035156,96.01399993896484 50.92499923706055,81.97899627685547 19.190000534057617,26.740999221801758 33.744998931884766,35.382999420166016 50.92499923706055,65.28700256347656 50.92499923706055,40.9739990234375 46.25699996948242,38.20199966430664 29.724998474121094,28.387001037597656 17.56800079345703,21.167999267578125 3.373000144958496,12.739999771118164 20.73699951171875,12.739999771118164 82.6259994506836,12.739999771118164 67.802001953125,21.167999267578125 34.18000030517578,21.167999267578125 50.92499923706055,31.111000061035156 54.742000579833984,33.37699890136719 58.98500061035156,30.96500015258789 76.22200012207031,21.167999267578125 88.79900360107422,14.017000198364258 88.80400085449219,14.017000198364258 102.12799835205078,6.439000129699707 " transform="matrix(1 0 0 1 0 0)"/>
 </g>
</svg>