<?xml version="1.0"?>
<svg width="344.869" height="106" xmlns="http://www.w3.org/2000/svg" xmlns:svg="http://www.w3.org/2000/svg" enable-background="new 0 0 344.869 106" version="1.1" xml:space="preserve">
 <g class="layer">
  <title>Layer 1</title>
  <g id="svg_1">
   <text fill="#000000" font-family="Serif" font-size="24" id="svg_9" stroke-width="0" text-anchor="middle" transform="rotate(-0.00125244 187.436 52.5492) matrix(1.13757 0 0 1.86465 53.6287 1.36584)" x="117.63" xml:space="preserve" y="35.54">PrimosCientific</text>
  </g>
  <polygon id="svg_7" points="96.784,26.168 66.015,80.461 66.015,64.525 83.856,33.037 65.925,43.235 65.921,43.235 61.985,45.472   61.985,101.014 53.925,86.979 22.19,31.741 36.745,40.383 53.925,70.287 53.925,45.974 49.257,43.202 32.725,33.387 20.568,26.168   6.373,17.74 23.737,17.74 85.626,17.74 70.802,26.168 37.18,26.168 53.925,36.111 57.742,38.377 61.985,35.965 79.222,26.168   91.799,19.017 91.804,19.017 105.128,11.439 "/>
 </g>
</svg>